<svg xmlns="http://www.w3.org/2000/svg" viewBox="0 0 48 48" width="48px" height="48px"><path fill="#FFC107" d="M43.611,20.083H42V20H24v8h11.303c-1.649,4.657-6.08,8-11.303,8c-6.627,0-12-5.373-12-12c0-6.627,5.373-12,12-12c3.059,0,5.842,1.154,8.065,3.09l5.656-5.656C34.046,6.053,29.268,4,24,4C12.955,4,4,12.955,4,24c0,11.045,8.955,20,20,20c11.045,0,19.154-8.125,19.154-19.154C43.903,23.044,43.611,21.358,43.611,20.083z"/><path fill="#FF3D00" d="M6.306,14.691l6.571,4.819C14.655,15.108,18.961,12,24,12c3.059,0,5.842,1.154,8.065,3.09l5.656-5.656C34.046,6.053,29.268,4,24,4C12.955,4,4,12.955,4,24c0,3.678,1.19,7.019,3.186,9.787L14.655,28.19C12.432,25.291,11.192,21.797,11.192,18C11.192,16.523,11.51,15.099,12.096,13.791z"/><path fill="#4CAF50" d="M24,44c5.166,0,9.86-1.977,13.409-5.192l-6.19-5.238C29.211,35.091,26.64,36,24,36c-5.202,0-9.619-3.317-11.283-7.946l-6.522,4.97C9.37,40.86,16.281,44,24,44z"/><path fill="#1976D2" d="M43.611,20.083H42V20H24v8h11.303c-0.792,2.237-2.231,4.166-4.087,5.571c0.001-0.001,0.002-0.001,0.002-0.002l6.19,5.238C36.971,39.205,44,34,44,24C44,22.659,43.862,21.35,43.611,20.083z"/></svg>